<svg width="82" height="82" viewBox="0 0 82 82" fill="none" xmlns="http://www.w3.org/2000/svg">
<circle r="40" transform="matrix(-1 0 0 1 41 41)" stroke="#393913" stroke-width="2"/>
<path fill-rule="evenodd" clip-rule="evenodd" d="M79.9991 40.7563C79.9996 40.8375 79.9998 40.9187 79.9998 41C79.9998 41.092 79.9995 41.184 79.9989 41.2759C80.0001 41.1027 80.0001 40.9295 79.9991 40.7563ZM41.2579 79.9992C41.1719 79.9997 41.0859 80 40.9998 80C40.9232 80 40.8467 79.9998 40.7702 79.9993C40.9328 80.0003 41.0953 80.0002 41.2579 79.9992ZM40.9998 0V2C19.4607 2 1.99981 19.4609 1.99981 41H-0.000190735C-0.000190735 41.6681 0.0161362 42.3349 0.0486069 43C0.410294 50.4072 2.77559 57.5915 6.90955 63.7784C11.4147 70.5208 17.818 75.7759 25.3098 78.8791C30.2286 80.9165 35.4716 81.9662 40.7437 81.9992C18.2179 81.8614 -0.000190735 63.5582 -0.000190735 41C-0.000190735 18.3563 18.3561 0 40.9998 0ZM41.278 81.9991C43.8584 81.9816 46.4435 81.7204 48.9985 81.2122C56.9211 79.6363 64.201 75.7554 69.9249 70.0575C62.5716 77.3775 52.4559 81.9248 41.278 81.9991ZM70.0489 69.9335C75.7514 64.2083 79.6353 56.9252 81.212 48.9987C81.7199 46.4452 81.9811 43.8617 81.9989 41.2828C81.9233 52.4631 77.3728 62.5805 70.0489 69.9335ZM81.999 40.7439C81.8612 18.2181 63.558 0 40.9998 0C41.6679 0 42.3347 0.0163221 42.9998 0.0487962C50.407 0.410481 57.5913 2.77578 63.7782 6.90975C70.5206 11.4149 75.7757 17.8182 78.8789 25.31C80.9163 30.2288 81.966 35.4718 81.999 40.7439Z" fill="#F8C85C"/>
<path d="M23.2929 41.7071C22.9024 41.3166 22.9024 40.6834 23.2929 40.2929L29.6569 33.9289C30.0474 33.5384 30.6805 33.5384 31.0711 33.9289C31.4616 34.3195 31.4616 34.9526 31.0711 35.3431L25.4142 41L31.0711 46.6569C31.4616 47.0474 31.4616 47.6805 31.0711 48.0711C30.6805 48.4616 30.0474 48.4616 29.6569 48.0711L23.2929 41.7071ZM58 42H24V40H58V42Z" fill="#F8C85C"/>
</svg>
