<svg width="82" height="83" viewBox="0 0 82 83" fill="none" xmlns="http://www.w3.org/2000/svg">
<circle cx="41" cy="41.8027" r="40" stroke="#393913" stroke-width="2"/>
<path fill-rule="evenodd" clip-rule="evenodd" d="M2.00094 41.5591C2.00044 41.6402 2.00019 41.7215 2.00019 41.8027C2.00019 41.8948 2.00051 41.9867 2.00115 42.0786C1.99993 41.9054 1.99986 41.7322 2.00094 41.5591ZM40.7421 80.8019C40.8281 80.8025 40.9141 80.8027 41.0002 80.8027C41.0768 80.8027 41.1533 80.8025 41.2298 80.8021C41.0672 80.803 40.9047 80.803 40.7421 80.8019ZM41.0002 0.802734V2.80273C62.5393 2.80273 80.0002 20.2636 80.0002 41.8027H82.0002C82.0002 42.4708 81.9839 43.1377 81.9514 43.8027C81.5897 51.2099 79.2244 58.3942 75.0904 64.5811C70.5853 71.3235 64.182 76.5786 56.6902 79.6818C51.7714 81.7192 46.5284 82.769 41.2563 82.8019C63.7821 82.6641 82.0002 64.361 82.0002 41.8027C82.0002 19.1591 63.6439 0.802734 41.0002 0.802734ZM40.722 82.8018C38.1416 82.7843 35.5565 82.5232 33.0015 82.0149C25.0789 80.439 17.799 76.5581 12.0751 70.8602C19.4284 78.1802 29.5441 82.7275 40.722 82.8018ZM11.9511 70.7363C6.24864 65.011 2.36467 57.7279 0.787997 49.8014C0.280066 47.2479 0.0189163 44.6644 0.00114773 42.0855C0.0766574 53.2658 4.62716 63.3833 11.9511 70.7363ZM0.000976562 41.5466C0.138786 19.0208 18.442 0.802734 41.0002 0.802734C40.3321 0.802734 39.6653 0.819056 39.0002 0.851531C31.593 1.21322 24.4087 3.57851 18.2218 7.71248C11.4794 12.2176 6.22433 18.6209 3.12113 26.1127C1.08369 31.0315 0.033951 36.2745 0.000976562 41.5466Z" fill="#F8C85C"/>
<path d="M58.7071 42.5098C59.0976 42.1193 59.0976 41.4862 58.7071 41.0956L52.3431 34.7317C51.9526 34.3411 51.3195 34.3411 50.9289 34.7317C50.5384 35.1222 50.5384 35.7554 50.9289 36.1459L56.5858 41.8027L50.9289 47.4596C50.5384 47.8501 50.5384 48.4833 50.9289 48.8738C51.3195 49.2643 51.9526 49.2643 52.3431 48.8738L58.7071 42.5098ZM24 42.8027H58V40.8027H24V42.8027Z" fill="#F8C85C"/>
</svg>
