<svg width="23" height="22" viewBox="0 0 23 22" fill="none" xmlns="http://www.w3.org/2000/svg">
<path fill-rule="evenodd" clip-rule="evenodd" d="M0.667969 1.838C0.667969 1.35053 0.861615 0.883032 1.20631 0.53834C1.551 0.193648 2.0185 2.45031e-06 2.50597 2.45031e-06H20.828C21.0695 -0.000392101 21.3088 0.0468654 21.5321 0.139069C21.7554 0.231273 21.9583 0.366612 22.1292 0.537339C22.3001 0.708065 22.4357 0.910826 22.5281 1.13401C22.6206 1.3572 22.6681 1.59643 22.668 1.838V20.16C22.6682 20.4016 22.6209 20.6409 22.5285 20.8642C22.4362 21.0875 22.3008 21.2904 22.13 21.4613C21.9592 21.6322 21.7564 21.7678 21.5331 21.8602C21.3099 21.9526 21.0706 22.0001 20.829 22H2.50597C2.26452 22 2.02543 21.9524 1.80237 21.86C1.5793 21.7676 1.37664 21.6321 1.20595 21.4613C1.03527 21.2905 0.899901 21.0878 0.807591 20.8647C0.715282 20.6416 0.667838 20.4025 0.667969 20.161V1.838ZM9.37597 8.388H12.355V9.884C12.785 9.024 13.885 8.25 15.538 8.25C18.707 8.25 19.458 9.963 19.458 13.106V18.928H16.251V13.822C16.251 12.032 15.821 11.022 14.729 11.022C13.214 11.022 12.584 12.111 12.584 13.822V18.928H9.37597V8.388ZM3.87597 18.791H7.08397V8.25H3.87597V18.79V18.791ZM7.54297 4.812C7.54902 5.08668 7.50014 5.35979 7.39921 5.61532C7.29828 5.87084 7.14732 6.10364 6.9552 6.30003C6.76308 6.49643 6.53367 6.65248 6.28042 6.75901C6.02718 6.86554 5.75521 6.92042 5.48047 6.92042C5.20573 6.92042 4.93376 6.86554 4.68051 6.75901C4.42727 6.65248 4.19786 6.49643 4.00574 6.30003C3.81362 6.10364 3.66266 5.87084 3.56173 5.61532C3.4608 5.35979 3.41192 5.08668 3.41797 4.812C3.42984 4.27286 3.65235 3.75979 4.03785 3.38269C4.42335 3.00558 4.94119 2.79442 5.48047 2.79442C6.01975 2.79442 6.53758 3.00558 6.92308 3.38269C7.30858 3.75979 7.5311 4.27286 7.54297 4.812Z" fill="#393913"/>
</svg>
