<svg width="23" height="20" viewBox="0 0 23 20" fill="none" xmlns="http://www.w3.org/2000/svg">
<path d="M22.706 2.93757C21.871 3.30757 20.974 3.55757 20.031 3.67057C21.004 3.08836 21.7319 2.17203 22.079 1.09257C21.1648 1.63555 20.1643 2.01776 19.121 2.22257C18.4194 1.47343 17.4901 0.976891 16.4773 0.810039C15.4646 0.643187 14.4251 0.815357 13.5202 1.29982C12.6154 1.78428 11.8958 2.55393 11.4732 3.48927C11.0505 4.42461 10.9485 5.47332 11.183 6.47257C9.33069 6.37956 7.51863 5.89811 5.86442 5.05947C4.21022 4.22083 2.75084 3.04373 1.581 1.60457C1.181 2.29457 0.951 3.09457 0.951 3.94657C0.950554 4.71356 1.13943 5.46881 1.50088 6.1453C1.86232 6.82179 2.38516 7.3986 3.023 7.82457C2.28328 7.80103 1.55987 7.60115 0.913 7.24157V7.30156C0.912925 8.37731 1.28503 9.41994 1.96618 10.2526C2.64733 11.0852 3.59557 11.6565 4.65 11.8696C3.96378 12.0553 3.24434 12.0826 2.546 11.9496C2.8435 12.8752 3.423 13.6846 4.20337 14.2645C4.98374 14.8444 5.92592 15.1657 6.898 15.1836C5.24783 16.479 3.20989 17.1817 1.112 17.1786C0.740381 17.1787 0.369076 17.157 0 17.1136C2.12948 18.4827 4.60834 19.2094 7.14 19.2066C15.71 19.2066 20.395 12.1086 20.395 5.95257C20.395 5.75257 20.39 5.55056 20.381 5.35056C21.2923 4.69154 22.0789 3.87546 22.704 2.94057L22.706 2.93757Z" fill="#393913"/>
</svg>
