<svg width="304" height="16" viewBox="0 0 304 16" fill="none" xmlns="http://www.w3.org/2000/svg">
<path d="M1 13C27.0269 2.98931 37.0373 2.98931 31.0311 13C57.058 1.4492 67.0684 1.4492 61.0622 13C87.0891 1.53476 97.0994 1.53476 91.0932 13C117.12 4.18717 127.131 4.18717 121.124 13C147.151 -1.03208 157.162 -1.03208 151.155 13C177.182 1.53476 187.193 1.53476 181.186 13C207.213 -3 217.224 -3 211.218 13C237.244 3.50267 247.255 3.50267 241.249 13C267.276 1.4492 277.286 1.4492 271.28 13C297.307 -2.31551 307.317 -2.31551 301.311 13" stroke="#393913" stroke-width="2"/>
</svg>
