<svg width="487" height="19" viewBox="0 0 487 19" fill="none" xmlns="http://www.w3.org/2000/svg">
<path fill-rule="evenodd" clip-rule="evenodd" d="M247.921 18.4912L244.443 16.9104C234.012 12.17 225.206 8.62432 218.019 6.26547C210.812 3.90015 205.307 2.75378 201.451 2.75378C197.56 2.75378 195.754 3.8932 195.164 5.636C194.842 6.58682 194.813 7.86871 195.192 9.54713C195.569 11.2196 196.336 13.2162 197.519 15.5472L198.755 17.9799L196.24 16.9217C185.808 12.5322 177.001 9.24847 169.811 7.06359C162.604 4.87323 157.091 3.80906 153.222 3.80906C149.289 3.80906 147.498 4.88696 146.927 6.45019C146.617 7.29731 146.584 8.45332 146.959 9.99216C147.333 11.5258 148.094 13.3646 149.276 15.5192L150.669 18.0592L148.006 16.9194C137.574 12.4547 128.767 9.11476 121.578 6.8926C114.371 4.66475 108.859 3.58293 104.993 3.58293C101.069 3.58293 99.2756 4.6742 98.7 6.27547C98.3875 7.14496 98.3555 8.32816 98.7314 9.897C99.1061 11.4605 99.8686 13.3331 101.051 15.5254L102.358 17.9498L99.7997 16.9288C89.3675 12.7648 80.5588 9.64947 73.3676 7.57646C66.1595 5.49856 60.641 4.48745 56.7646 4.48745C52.8044 4.48745 51.0225 5.52459 50.4634 6.97524C50.1629 7.75469 50.1266 8.82839 50.4988 10.2769C50.8699 11.721 51.6273 13.4582 52.8074 15.4995L54.2971 18.076L51.5539 16.9217C41.1221 12.5322 32.3146 9.24847 25.1252 7.06359C17.9176 4.87323 12.4046 3.80906 8.53586 3.80906C4.60291 3.80906 2.81232 4.88696 2.24075 6.45019C1.93103 7.29731 1.89804 8.45332 2.27313 9.99216C2.64694 11.5258 3.4082 13.3646 4.58981 15.5192L2.83621 16.4809C1.60638 14.2384 0.759979 12.2298 0.330017 10.4658C-0.0987244 8.70689 -0.131714 7.11478 0.362366 5.76341C1.39844 2.92965 4.43073 1.80906 8.53586 1.80906C12.7053 1.80906 18.4456 2.94338 25.7067 5.15C32.3834 7.17905 40.404 10.1332 49.7636 14.0073C49.2214 12.8511 48.8182 11.7728 48.5617 10.7746C48.1301 9.09501 48.0938 7.56192 48.5972 6.25594C49.6457 3.53574 52.6866 2.48745 56.7646 2.48745C60.9263 2.48745 66.6612 3.56176 73.9216 5.65472C80.6301 7.58857 88.6964 10.4088 98.1155 14.1105C97.5073 12.7606 97.0615 11.5105 96.7865 10.3631C96.3587 8.57765 96.3267 6.96562 96.8179 5.59893C97.85 2.72784 100.879 1.58293 104.993 1.58293C109.165 1.58293 114.907 2.73729 122.169 4.9818C128.859 7.04995 136.899 10.0629 146.283 14.0151C145.707 12.7402 145.282 11.5563 145.016 10.4658C144.587 8.70689 144.554 7.11478 145.049 5.76341C146.085 2.92965 149.117 1.80906 153.222 1.80906C157.391 1.80906 163.132 2.94338 170.393 5.15C177.11 7.1913 185.187 10.1689 194.619 14.0775C193.985 12.5987 193.522 11.2344 193.241 9.98744C192.816 8.1043 192.787 6.41823 193.269 4.99468C194.287 1.98874 197.303 0.753782 201.451 0.753782C205.632 0.753782 211.381 1.98179 218.643 4.36521C225.21 6.52054 233.075 9.64174 242.234 13.723C241.922 13.1197 241.674 12.5416 241.494 11.9896C241.046 10.612 240.991 9.29382 241.547 8.15536C242.105 7.01271 243.176 6.2595 244.534 5.79637C245.885 5.33506 247.616 5.12564 249.679 5.12564C257.611 5.12564 271.504 8.24211 291.253 14.3788C290.524 12.6545 290.002 11.076 289.696 9.6471C289.273 7.67462 289.247 5.92008 289.722 4.44392C290.208 2.93327 291.194 1.79148 292.625 1.0497C294.025 0.324115 295.809 1.33514e-05 297.908 1.33514e-05C302.098 1.33514e-05 307.853 1.2952 315.115 3.80486C321.709 6.08348 329.61 9.38687 338.815 13.7087C338.439 12.9454 338.147 12.2205 337.944 11.5353C337.503 10.0469 337.456 8.65212 337.989 7.45326C338.53 6.23609 339.585 5.40465 340.963 4.88784C342.326 4.37664 344.067 4.14574 346.137 4.14574C354.053 4.14574 367.879 7.54894 387.5 14.2407C386.888 12.9442 386.439 11.7421 386.161 10.6372C385.731 8.92243 385.696 7.36326 386.195 6.03721C387.238 3.26624 390.276 2.18594 394.366 2.18594C398.531 2.18594 404.268 3.28691 411.529 5.43038C418.085 7.36584 425.937 10.1681 435.081 13.8323C434.806 13.3292 434.584 12.8442 434.418 12.3777C433.961 11.0924 433.897 9.83477 434.478 8.7456C435.051 7.66939 436.136 6.9837 437.473 6.56566C438.815 6.14618 440.536 5.95479 442.594 5.95479C450.794 5.95479 465.391 9.01288 486.277 15.0392L485.723 16.9608C464.811 10.9268 450.471 7.95479 442.594 7.95479C440.634 7.95479 439.139 8.14028 438.07 8.47457C436.996 8.8103 436.472 9.25526 436.242 9.68659C436.019 10.105 435.955 10.7318 436.302 11.7078C436.651 12.6895 437.379 13.9086 438.552 15.3754L440.958 18.3827L437.393 16.9257C426.961 12.6615 418.153 9.47127 410.962 7.34854C403.755 5.22066 398.239 4.18594 394.366 4.18594C390.417 4.18594 388.632 5.24133 388.067 6.74171C387.762 7.55134 387.728 8.66177 388.101 10.1505C388.474 11.6344 389.233 13.4168 390.413 15.5084L391.713 17.8096L389.216 16.945C368.298 9.70252 353.982 6.14574 346.137 6.14574C344.188 6.14574 342.714 6.36711 341.665 6.76043C340.632 7.14814 340.079 7.67348 339.816 8.26536C339.545 8.87555 339.498 9.7421 339.861 10.9672C340.224 12.1911 340.97 13.6801 342.146 15.4454L344.163 18.4719L340.882 16.9021C330.452 11.911 321.647 8.17825 314.462 5.69517C307.255 3.20483 301.756 2.00001 297.908 2.00001C295.988 2.00001 294.557 2.30091 293.545 2.82533C292.565 3.33354 291.944 4.06676 291.626 5.05611C291.297 6.07995 291.271 7.45041 291.652 9.22793C292.031 10.9991 292.801 13.1083 293.986 15.5656L294.991 17.6486L292.785 16.9538C271.87 10.3661 257.542 7.12564 249.679 7.12564C247.724 7.12564 246.239 7.32765 245.18 7.68921C244.125 8.04894 243.589 8.53003 243.344 9.03311C243.096 9.54038 243.041 10.2793 243.396 11.3704C243.752 12.4632 244.489 13.8058 245.663 15.409L247.921 18.4912Z" fill="#393913"/>
</svg>
