<svg width="219" height="24" viewBox="0 0 219 24" fill="none" xmlns="http://www.w3.org/2000/svg">
<path d="M1.05008 14.3496C20.9682 1.09671 28.1991 0.91012 22.7429 13.7898C17.5824 25.1921 24.8134 25.0055 44.4356 13.2301C64.3916 1.44609 71.6226 1.25951 66.1284 12.6703C61.5392 20.1381 68.7702 19.9516 87.8212 12.1106C107.878 4.24365 115.109 4.05706 109.514 11.5508C103.414 20.4295 110.645 20.2429 131.207 10.9911C151.228 1.75317 158.459 1.56658 152.9 10.4313C146.92 20.6788 154.151 20.4922 174.592 9.87156C194.579 -0.737316 201.81 -0.923901 196.285 9.31181C190.518 20.4847 197.749 20.2981 217.978 8.75205" stroke="#393913" stroke-width="2"/>
</svg>
