<svg width="310" height="25" viewBox="0 0 310 25" fill="none" xmlns="http://www.w3.org/2000/svg">
<path d="M1.24637 16.1455C29.674 2.67303 39.9441 2.40802 32.0565 15.3505C24.6051 26.8118 34.8751 26.5468 62.8667 14.5555C91.3322 2.55189 101.602 2.28689 93.6768 13.7604C87.0792 21.2801 97.3492 21.0151 124.487 12.9654C153.054 4.87892 163.324 4.61391 155.297 12.1704C146.539 21.1177 156.809 20.8527 186.107 11.3754C214.638 1.91791 224.909 1.65291 216.917 10.5804C208.315 20.8955 218.585 20.6305 247.728 9.78536C276.223 -1.04309 286.493 -1.3081 278.538 8.99034C270.227 20.2289 280.497 19.9639 309.348 8.19533" stroke="#393913" stroke-width="2"/>
</svg>
