<svg width="125" height="67" viewBox="0 0 125 67" fill="none" xmlns="http://www.w3.org/2000/svg">
<path d="M27.4798 38.0961H27.6718H27.4798ZM51.2878 14.0321C52.1838 16.2081 53.1438 19.1094 54.1678 22.7361C55.1918 26.3201 56.1945 30.2028 57.1758 34.3841C58.1998 38.5228 59.1598 42.7041 60.0558 46.9281C60.9518 51.1521 61.7198 54.9921 62.3598 58.4481C61.9758 59.8561 61.1652 61.1361 59.9278 62.2881C58.6905 63.4401 57.2612 64.3788 55.6398 65.1041C54.0185 65.8294 52.2692 66.2774 50.3918 66.4481C48.5145 66.6188 46.7438 66.4268 45.0798 65.8721C43.4158 65.2748 41.9225 64.2721 40.5998 62.8641C39.2772 61.4561 38.3598 59.5148 37.8478 57.0401C37.1225 53.7121 36.4398 50.3841 35.7998 47.0561C35.2025 43.7281 34.6265 40.5494 34.0718 37.5201C33.5598 34.4908 33.1118 31.6748 32.7278 29.0721C32.3438 26.4694 32.0238 24.2294 31.7678 22.3521H31.1278C30.5305 24.9548 29.9118 27.5574 29.2718 30.1601C28.6745 32.7628 28.0772 35.4081 27.4798 38.0961C26.9252 40.4001 26.3492 42.9601 25.7518 45.7761C25.1972 48.5494 24.6638 51.2374 24.1518 53.8401C23.6398 56.4001 23.1705 58.7254 22.7438 60.8161C22.3172 62.8641 21.9758 64.3148 21.7198 65.1681C17.6665 66.6614 14.1465 67.1948 11.1598 66.7681C8.21583 66.3414 5.84783 65.2108 4.05583 63.3761C2.30649 61.4988 1.13316 59.0454 0.535826 56.0161C-0.0188404 52.9868 0.066493 49.5948 0.791826 45.8401C1.21849 43.6214 1.75183 41.2108 2.39183 38.6081C3.07449 36.0054 3.82116 33.3601 4.63183 30.6721C5.44249 27.9414 6.29583 25.2108 7.19183 22.4801C8.08783 19.7494 8.98383 17.1681 9.87983 14.7361C10.8185 12.2614 11.6932 10.0001 12.5038 7.9521C13.3572 5.90409 14.1465 4.19743 14.8718 2.83209C16.4078 2.32009 18.1785 1.82943 20.1838 1.36009C22.2318 0.890758 24.3865 0.570759 26.6478 0.400093C28.9518 0.18676 31.2985 0.208093 33.6878 0.464094C36.0772 0.720094 38.3598 1.36009 40.5358 2.38409C42.7118 3.36543 44.7172 4.79476 46.5518 6.6721C48.4292 8.54943 50.0078 11.0028 51.2878 14.0321Z" fill="#F8C85C"/>
<path d="M94.0268 1.2961C97.4828 1.2961 101.003 1.4881 104.587 1.87209C108.171 2.21343 111.435 2.91743 114.379 3.9841C117.323 5.05076 119.733 6.54409 121.611 8.46409C123.488 10.3841 124.427 12.8801 124.427 15.9521V57.2321C124.427 57.8294 124.427 58.4481 124.427 59.0881C124.427 59.7281 124.405 60.3681 124.363 61.0081C124.363 61.6481 124.341 62.2454 124.299 62.8001C124.256 63.3121 124.213 63.7601 124.171 64.1441C123.701 64.6988 122.827 65.1894 121.547 65.6161C120.309 66.0428 118.859 66.3414 117.195 66.5121C115.531 66.7254 113.781 66.7681 111.947 66.6401C110.155 66.5121 108.469 66.1281 106.891 65.4881C105.312 64.8481 103.947 63.9094 102.795 62.6721C101.685 61.4348 101.003 59.8348 100.747 57.8721C100.661 57.3174 100.597 56.1441 100.555 54.3521C100.512 52.5174 100.469 50.3841 100.427 47.9521C100.384 45.5201 100.341 42.9388 100.299 40.2081C100.299 37.4348 100.277 34.8534 100.235 32.4641C100.235 30.0321 100.235 27.9414 100.235 26.1921C100.235 24.4428 100.235 23.3334 100.235 22.8641H88.2028V64.1441C87.6055 64.6988 86.6242 65.2321 85.2588 65.7441C83.9362 66.2134 82.4215 66.5548 80.7148 66.7681C79.0508 66.9814 77.3015 66.9814 75.4668 66.7681C73.6322 66.5974 71.9255 66.0854 70.3468 65.2321C68.7682 64.3788 67.4455 63.1414 66.3788 61.5201C65.3122 59.8561 64.6935 57.7014 64.5228 55.0561C64.4375 53.8614 64.3308 52.1334 64.2028 49.8721C64.1175 47.5681 64.0322 44.9654 63.9468 42.0641C63.8615 39.1201 63.7975 36.0054 63.7548 32.7201C63.7122 29.4348 63.6695 26.2134 63.6268 23.0561C63.6268 19.8988 63.6482 16.9121 63.6908 14.0961C63.7335 11.2801 63.8188 8.89076 63.9468 6.92809C65.7388 5.81876 67.8935 4.90143 70.4108 4.17609C72.9708 3.45076 75.6375 2.87476 78.4108 2.44809C81.1842 2.02143 83.9362 1.72276 86.6668 1.5521C89.3975 1.38143 91.8508 1.2961 94.0268 1.2961Z" fill="#F8C85C"/>
</svg>
